<?xml version="1.0" encoding="utf-8"?>
<!-- Generator: Adobe Illustrator 22.1.0, SVG Export Plug-In . SVG Version: 6.00 Build 0)  -->
<svg version="1.1" id="Layer_1" xmlns="http://www.w3.org/2000/svg" xmlns:xlink="http://www.w3.org/1999/xlink" x="0px" y="0px"
	 viewBox="0 0 697.6 697.6" style="enable-background:new 0 0 697.6 697.6;" xml:space="preserve">
<style type="text/css">
	.st0{fill:#C02F36;}
	.st1{opacity:0.31;fill:#F3FDFF;}
	.st2{fill:#172E47;}
	.st3{fill:#F1F2F2;}
	.st4{fill:#E6E7E8;}
	.st5{fill:#274152;}
	.st6{fill:#58595B;}
	.st7{fill:#F5AE3E;}
	.st8{fill:#93213B;}
	.st9{fill:none;stroke:#C02F36;stroke-width:4;stroke-miterlimit:10;}
	.st10{fill:#FFFFFF;}
	.st11{opacity:0.2;}
	.st12{fill:#D1D3D4;}
</style>
<g>
	<circle class="st0" cx="348.8" cy="348.8" r="348.8"/>
	<g>
		<path class="st1" d="M659.7,465.3c0-171.7-139.2-310.9-310.9-310.9c-171.7,0-310.9,139.2-310.9,310.9c0,1.2,0,2.4,0,3.6h621.6
			C659.6,467.7,659.7,466.5,659.7,465.3z"/>
		<rect x="330.3" y="407.6" class="st2" width="37" height="61.3"/>
		<rect x="214.8" y="399.6" class="st3" width="268" height="12"/>
		<rect x="310.1" y="441.7" class="st4" width="77.3" height="27.2"/>
		<polygon class="st5" points="376,422.1 321.5,422.1 311.5,412.1 386,412.1 		"/>
		<polygon class="st3" points="203.8,317.6 493.8,317.6 503.8,340.6 193.8,340.6 		"/>
		<rect x="202.5" y="340.6" class="st5" width="292.7" height="24"/>
		<path class="st4" d="M348.8,271.8c-52.2,0-101.3,16.6-144.3,45.8h288.7C450.1,288.4,401,271.8,348.8,271.8z"/>
		<path class="st4" d="M297,399.6h-71c-17.6,0-33.1-11.5-38.2-28.3l-2.1-6.7H297h103.5h111.3l-2.1,6.7
			c-5.2,16.8-20.7,28.3-38.2,28.3h-71H297z"/>
		<rect x="338.8" y="261.6" class="st2" width="20" height="10"/>
		<path class="st2" d="M360.3,253c-2.4-3.9-6.6-6.5-11.5-6.5s-9.2,2.6-11.5,6.5H360.3z"/>
		<rect x="348" y="253" class="st6" width="1.7" height="8.7"/>
		<path class="st7" d="M288.5,363.6c0-7.2-5.8-13-13-13c-7.2,0-13,5.8-13,13c0,0.3,0,0.7,0.1,1h25.9
			C288.5,364.3,288.5,364,288.5,363.6z"/>
		<path class="st7" d="M361.8,363.6c0-7.2-5.8-13-13-13c-7.2,0-13,5.8-13,13c0,0.3,0,0.7,0.1,1h25.9
			C361.8,364.3,361.8,364,361.8,363.6z"/>
		<path class="st7" d="M435,363.6c0-7.2-5.8-13-13-13c-7.2,0-13,5.8-13,13c0,0.3,0,0.7,0.1,1H435C435,364.3,435,364,435,363.6z"/>
		<path class="st7" d="M202.5,350.6v14h12.8c0-0.3,0.1-0.7,0.1-1C215.3,356.5,209.6,350.7,202.5,350.6z"/>
		<path class="st7" d="M482.3,363.6c0,0.3,0,0.7,0.1,1h12.8v-14C488,350.7,482.3,356.5,482.3,363.6z"/>
	</g>
	<path class="st8" d="M348.8,697.6c150.4,0,278.6-95.2,327.6-228.7H21.2C70.2,602.3,198.4,697.6,348.8,697.6z"/>
	<g>
		<circle class="st0" cx="348.8" cy="583.8" r="54.7"/>
		<circle class="st9" cx="348.8" cy="583.8" r="72.7"/>
		<g>
			<path class="st10" d="M340.9,555.9h15.8v55.9h-15.8V555.9z"/>
		</g>
	</g>
	<g class="st11">
		<path class="st8" d="M438.8,98.9c0,11,9,20,20,20H533h78.1c-12.7-14.4-26.5-27.8-41.4-40H458.8C447.7,78.9,438.8,87.8,438.8,98.9z
			"/>
		<path class="st8" d="M406.3,78.9h-55.5c-11,0-20,9-20,20s9,20,20,20h55.5c11,0,20-9,20-20S417.3,78.9,406.3,78.9z"/>
		<path class="st8" d="M611.1,118.9H533c11,0,20,9,20,20s-9,20-20,20h108.4C632.2,144.8,622.1,131.4,611.1,118.9z"/>
		<path class="st8" d="M641.4,158.9H533h-38.7c-11,0-20,9-20,20s9,20,20,20h76h93.5C657.2,185,649.7,171.7,641.4,158.9z"/>
		<path class="st8" d="M570.3,198.9c11,0,20,9,20,20s-9,20-20,20h109.6c-4.6-13.7-9.9-27.1-16.1-40H570.3z"/>
		<path class="st8" d="M570.3,238.9h-22c-11,0-20,9-20,20c0,11,9,20,20,20h142.3c-2.8-13.6-6.4-27-10.7-40H570.3z"/>
	</g>
	<g class="st11">
		<path class="st8" d="M158.2,74.6h74.2c11,0,20-9,20-20v0c0-11-9-20-20-20h-35.2c-22.8,11-44.3,24.5-64,40H158.2z"/>
		<path class="st8" d="M300.2,34.6h-13.8c-11,0-20,9-20,20v0c0,11,9,20,20,20h13.8c11,0,20-9,20-20v0
			C320.2,43.5,311.2,34.6,300.2,34.6z"/>
		<path class="st8" d="M90.3,114.6h67.9c-11,0-20-9-20-20s9-20,20-20h-25C117.8,86.7,103.5,100.1,90.3,114.6z"/>
		<path class="st8" d="M59,154.6h111.9c11,0,20-9,20-20v0c0-11-9-20-20-20h-12.7H90.3C79,127.1,68.5,140.5,59,154.6z"/>
		<path class="st8" d="M35.9,194.6h140c-11,0-20-9-20-20s9-20,20-20h-5H59C50.5,167.3,42.7,180.7,35.9,194.6z"/>
		<path class="st8" d="M202.9,214.6L202.9,214.6c0-11-9-20-20-20h-7h-140c-6.4,12.9-12,26.3-16.7,40h163.8
			C193.9,234.6,202.9,225.6,202.9,214.6z"/>
	</g>
</g>
</svg>
