<?xml version="1.0" encoding="utf-8"?>
<!-- Generator: Adobe Illustrator 22.1.0, SVG Export Plug-In . SVG Version: 6.00 Build 0)  -->
<svg version="1.1" id="Layer_1" xmlns="http://www.w3.org/2000/svg" xmlns:xlink="http://www.w3.org/1999/xlink" x="0px" y="0px"
	 viewBox="0 0 697.6 697.6" style="enable-background:new 0 0 697.6 697.6;" xml:space="preserve">
<style type="text/css">
	.st0{fill:#C02F36;}
	.st1{opacity:0.31;fill:#F3FDFF;}
	.st2{fill:#172E47;}
	.st3{fill:#F1F2F2;}
	.st4{fill:#E6E7E8;}
	.st5{fill:#274152;}
	.st6{fill:#58595B;}
	.st7{fill:#F5AE3E;}
	.st8{fill:#93213B;}
	.st9{fill:none;stroke:#C02F36;stroke-width:4;stroke-miterlimit:10;}
	.st10{fill:#FFFFFF;}
	.st11{opacity:0.2;}
	.st12{fill:#D1D3D4;}
</style>
<g>
	<circle class="st0" cx="348.8" cy="348.8" r="348.8"/>
	<path class="st8" d="M348.8,697.6c150.4,0,278.6-95.2,327.6-228.7H21.2C70.2,602.3,198.4,697.6,348.8,697.6z"/>
	<circle class="st0" cx="348.8" cy="583.8" r="54.7"/>
	<circle class="st9" cx="348.8" cy="583.8" r="72.7"/>
	<g>
		<g>
			<path class="st10" d="M328.9,555.9h15.8v55.9h-15.8V555.9z"/>
		</g>
		<g>
			<path class="st10" d="M352.8,555.9h15.8v55.9h-15.8V555.9z"/>
		</g>
	</g>
	<g class="st11">
		<path class="st8" d="M438.8,98.9c0,11,9,20,20,20H533h78.1c-12.7-14.4-26.5-27.8-41.4-40H458.8C447.7,78.9,438.8,87.8,438.8,98.9z
			"/>
		<path class="st8" d="M406.3,78.9h-55.5c-11,0-20,9-20,20s9,20,20,20h55.5c11,0,20-9,20-20S417.3,78.9,406.3,78.9z"/>
		<path class="st8" d="M611.1,118.9H533c11,0,20,9,20,20s-9,20-20,20h108.4C632.2,144.8,622.1,131.4,611.1,118.9z"/>
		<path class="st8" d="M641.4,158.9H533h-38.7c-11,0-20,9-20,20s9,20,20,20h76h93.5C657.2,185,649.7,171.7,641.4,158.9z"/>
		<path class="st8" d="M570.3,198.9c11,0,20,9,20,20s-9,20-20,20h109.6c-4.6-13.7-9.9-27.1-16.1-40H570.3z"/>
		<path class="st8" d="M570.3,238.9h-22c-11,0-20,9-20,20c0,11,9,20,20,20h142.3c-2.8-13.6-6.4-27-10.7-40H570.3z"/>
	</g>
	<g class="st11">
		<path class="st8" d="M158.2,74.6h74.2c11,0,20-9,20-20v0c0-11-9-20-20-20h-35.2c-22.8,11-44.3,24.5-64,40H158.2z"/>
		<path class="st8" d="M300.2,34.6h-13.8c-11,0-20,9-20,20v0c0,11,9,20,20,20h13.8c11,0,20-9,20-20v0
			C320.2,43.5,311.2,34.6,300.2,34.6z"/>
		<path class="st8" d="M90.3,114.6h67.9c-11,0-20-9-20-20s9-20,20-20h-25C117.8,86.7,103.5,100.1,90.3,114.6z"/>
		<path class="st8" d="M59,154.6h111.9c11,0,20-9,20-20v0c0-11-9-20-20-20h-12.7H90.3C79,127.1,68.5,140.5,59,154.6z"/>
		<path class="st8" d="M35.9,194.6h140c-11,0-20-9-20-20s9-20,20-20h-5H59C50.5,167.3,42.7,180.7,35.9,194.6z"/>
		<path class="st8" d="M202.9,214.6L202.9,214.6c0-11-9-20-20-20h-7h-140c-6.4,12.9-12,26.3-16.7,40h163.8
			C193.9,234.6,202.9,225.6,202.9,214.6z"/>
	</g>
	<g>
		<path class="st1" d="M659.7,465.3c0-171.7-139.2-310.9-310.9-310.9c-171.7,0-310.9,139.2-310.9,310.9c0,1.2,0,2.4,0,3.6h621.6
			C659.6,467.7,659.7,466.5,659.7,465.3z"/>
		<g>
			<rect x="330.3" y="407.6" class="st2" width="37" height="61.3"/>
			<rect x="310.1" y="441.7" class="st4" width="77.3" height="27.2"/>
			<polygon class="st5" points="376,417 321.5,417 311.5,407 386,407 			"/>
			<path class="st4" d="M493.3,407H204.3c-9.6,0-17.5-7.8-17.5-17.5v0c0-9.6,7.8-17.5,17.5-17.5h289.1c9.6,0,17.5,7.8,17.5,17.5v0
				C510.8,399.2,503,407,493.3,407z"/>
			<rect x="431.8" y="407" class="st2" width="6.7" height="61.8"/>
			<rect x="259.1" y="407" class="st2" width="6.7" height="61.8"/>
			<g>
				<g>
					<polygon class="st3" points="203.8,257.2 493.8,257.2 503.8,280.2 193.8,280.2 					"/>
					<rect x="202.5" y="280.2" class="st5" width="292.7" height="24"/>
					<path class="st4" d="M348.8,211.4c-52.2,0-101.3,16.6-144.3,45.8h288.7C450.1,228,401,211.4,348.8,211.4z"/>
					<path class="st4" d="M297,339.2h-71c-17.6,0-33.1-11.5-38.2-28.3l-2.1-6.7H297h103.5h111.3l-2.1,6.7
						c-5.2,16.8-20.7,28.3-38.2,28.3h-71H297z"/>
					<rect x="338.8" y="201.2" class="st2" width="20" height="10"/>
					<path class="st2" d="M360.3,192.6c-2.4-3.9-6.6-6.5-11.5-6.5s-9.2,2.6-11.5,6.5H360.3z"/>
					<rect x="348" y="192.6" class="st6" width="1.7" height="8.7"/>
					<path class="st7" d="M288.5,303.2c0-7.2-5.8-13-13-13c-7.2,0-13,5.8-13,13c0,0.3,0,0.7,0.1,1h25.9
						C288.5,303.9,288.5,303.6,288.5,303.2z"/>
					<path class="st7" d="M361.8,303.2c0-7.2-5.8-13-13-13c-7.2,0-13,5.8-13,13c0,0.3,0,0.7,0.1,1h25.9
						C361.8,303.9,361.8,303.6,361.8,303.2z"/>
					<path class="st7" d="M435,303.2c0-7.2-5.8-13-13-13c-7.2,0-13,5.8-13,13c0,0.3,0,0.7,0.1,1H435C435,303.9,435,303.6,435,303.2z
						"/>
					<path class="st7" d="M202.5,290.3v14h12.8c0-0.3,0.1-0.7,0.1-1C215.3,296.1,209.6,290.3,202.5,290.3z"/>
					<path class="st7" d="M482.3,303.2c0,0.3,0,0.7,0.1,1h12.8v-14C488,290.3,482.3,296.1,482.3,303.2z"/>
				</g>
				<g>
					<rect x="226.6" y="339.2" class="st5" width="244.5" height="32.9"/>
					<path class="st7" d="M288.5,371.1c0-7.2-5.8-13-13-13c-7.2,0-13,5.8-13,13c0,0.3,0,0.7,0.1,1h25.9
						C288.5,371.8,288.5,371.4,288.5,371.1z"/>
					<path class="st7" d="M361.8,371.1c0-7.2-5.8-13-13-13c-7.2,0-13,5.8-13,13c0,0.3,0,0.7,0.1,1h25.9
						C361.8,371.8,361.8,371.4,361.8,371.1z"/>
					<path class="st7" d="M435,371.1c0-7.2-5.8-13-13-13c-7.2,0-13,5.8-13,13c0,0.3,0,0.7,0.1,1H435C435,371.8,435,371.4,435,371.1z
						"/>
				</g>
			</g>
		</g>
		<path class="st4" d="M143.9,468.9h-63v-94.5c0-17.4,14.1-31.5,31.5-31.5h0c17.4,0,31.5,14.1,31.5,31.5V468.9z"/>
		<path class="st12" d="M182.9,468.9h-63v-50.5c0-17.4,14.1-31.5,31.5-31.5h0c17.4,0,31.5,14.1,31.5,31.5V468.9z"/>
		<circle class="st5" cx="112.4" cy="373.5" r="15.3"/>
		<circle class="st5" cx="151.4" cy="419.5" r="15.3"/>
	</g>
</g>
</svg>
