<?xml version="1.0" encoding="utf-8"?>
<!-- Generator: Adobe Illustrator 16.0.0, SVG Export Plug-In . SVG Version: 6.00 Build 0)  -->
<!DOCTYPE svg PUBLIC "-//W3C//DTD SVG 1.1//EN" "http://www.w3.org/Graphics/SVG/1.1/DTD/svg11.dtd">
<svg version="1.1" id="Layer_1" xmlns="http://www.w3.org/2000/svg" xmlns:xlink="http://www.w3.org/1999/xlink" x="0px" y="0px"
	 width="820px" height="1000px" viewBox="0 0 820 1000" enable-background="new 0 0 820 1000" xml:space="preserve">
<g>
	<circle fill="#C02F36" cx="410" cy="500" r="410"/>
	<g>
		<path opacity="0.31" fill="#F3FDFF" enable-background="new    " d="M775.45,636.941c0-201.827-163.624-365.451-365.45-365.451
			S44.55,435.114,44.55,636.941c0,1.41,0,2.82,0,4.231h730.665C775.333,639.762,775.45,638.352,775.45,636.941z"/>
	</g>
	<path fill="#93213B" d="M410,910c176.789,0,327.482-111.903,385.08-268.827H24.92C82.517,797.979,233.211,910,410,910z"/>
	<g>
		<circle fill="#C02F36" cx="410" cy="776.233" r="64.297"/>
		<circle fill="none" stroke="#C02F36" stroke-width="4" stroke-miterlimit="10" cx="410" cy="776.233" r="85.456"/>
	</g>
	<g opacity="0.2">
		<path fill="#93213B" d="M515.791,206.253c0,12.93,10.579,23.509,23.51,23.509h87.219h91.804
			c-14.929-16.927-31.15-32.678-48.664-47.019H539.301C526.253,182.744,515.791,193.205,515.791,206.253z"/>
		<path fill="#93213B" d="M477.589,182.744h-65.238c-12.93,0-23.509,10.579-23.509,23.509s10.579,23.509,23.509,23.509h65.238
			c12.93,0,23.509-10.579,23.509-23.509S490.519,182.744,477.589,182.744z"/>
		<path fill="#93213B" d="M718.323,229.762H626.52c12.93,0,23.509,10.579,23.509,23.509c0,12.93-10.579,23.509-23.509,23.509h127.42
			C743.125,260.207,731.253,244.455,718.323,229.762z"/>
		<path fill="#93213B" d="M753.939,276.78H626.52h-45.49c-12.93,0-23.509,10.579-23.509,23.509s10.579,23.509,23.509,23.509h89.335
			H780.27C772.512,307.46,763.695,291.826,753.939,276.78z"/>
		<path fill="#93213B" d="M670.364,323.799c12.93,0,23.509,10.579,23.509,23.509c0,12.93-10.579,23.509-23.509,23.509h128.83
			c-5.407-16.104-11.637-31.855-18.925-47.019H670.364z"/>
		<path fill="#93213B" d="M670.364,370.817h-25.86c-12.93,0-23.509,10.579-23.509,23.509s10.579,23.51,23.509,23.51h167.268
			c-3.291-15.986-7.522-31.738-12.577-47.019H670.364z"/>
	</g>
	<g opacity="0.2">
		<path fill="#93213B" d="M185.958,177.689h87.219c12.93,0,23.509-10.579,23.509-23.509l0,0c0-12.93-10.579-23.509-23.509-23.509
			H231.8c-26.8,12.93-52.073,28.799-75.229,47.019H185.958z"/>
		<path fill="#93213B" d="M352.873,130.671h-16.222c-12.93,0-23.509,10.579-23.509,23.509l0,0c0,12.93,10.579,23.509,23.509,23.509
			h16.222c12.93,0,23.509-10.579,23.509-23.509l0,0C376.382,141.132,365.803,130.671,352.873,130.671z"/>
		<path fill="#93213B" d="M106.144,224.708h79.813c-12.93,0-23.509-10.579-23.509-23.509c0-12.93,10.579-23.509,23.509-23.509
			h-29.386C138.469,191.912,121.66,207.664,106.144,224.708z"/>
		<path fill="#93213B" d="M69.352,271.726h131.534c12.93,0,23.509-10.579,23.509-23.509l0,0c0-12.93-10.579-23.509-23.509-23.509
			h-14.928h-79.813C92.861,239.401,80.519,255.152,69.352,271.726z"/>
		<path fill="#93213B" d="M42.199,318.744h164.564c-12.93,0-23.509-10.579-23.509-23.509c0-12.93,10.579-23.509,23.509-23.509
			h-5.877H69.352C59.361,286.654,50.192,302.405,42.199,318.744z"/>
		<path fill="#93213B" d="M238.5,342.253L238.5,342.253c0-12.93-10.579-23.509-23.509-23.509h-8.228H42.199
			c-7.523,15.164-14.105,30.915-19.63,47.019h192.54C227.921,365.763,238.5,355.184,238.5,342.253z"/>
	</g>
</g>
</svg>
